<mxfile host="www.draw.io" modified="2020-04-03T02:46:47.338Z" agent="5.0 (Macintosh; Intel Mac OS X 10_13_6) AppleWebKit/537.36 (KHTML, like Gecko) Chrome/80.0.3987.149 Safari/537.36" etag="I7JIxcEzpX5IwBdDSltS" version="12.9.6" type="github">
  <diagram id="5Q2asgkg0ADDl4_MdKWm" name="Page-1">
    <mxGraphModel dx="892" dy="498" grid="1" gridSize="10" guides="1" tooltips="1" connect="1" arrows="1" fold="1" page="1" pageScale="1" pageWidth="827" pageHeight="1169" math="0" shadow="0">
      <root>
        <mxCell id="0" />
        <mxCell id="1" parent="0" />
        <mxCell id="j1KfgDtCw7kQpafaiTb_-1" value="POS" style="rounded=0;whiteSpace=wrap;html=1;" vertex="1" parent="1">
          <mxGeometry x="50" y="140" width="60" height="40" as="geometry" />
        </mxCell>
        <mxCell id="j1KfgDtCw7kQpafaiTb_-2" value="HHT" style="rounded=1;whiteSpace=wrap;html=1;" vertex="1" parent="1">
          <mxGeometry x="240" y="90" width="60" height="140" as="geometry" />
        </mxCell>
        <mxCell id="j1KfgDtCw7kQpafaiTb_-3" value="本地BOH&lt;br&gt;cboh_selloff_3ch" style="rounded=1;whiteSpace=wrap;html=1;" vertex="1" parent="1">
          <mxGeometry x="350" y="110" width="114" height="40" as="geometry" />
        </mxCell>
        <mxCell id="j1KfgDtCw7kQpafaiTb_-5" value="BaseMember&lt;br&gt;cboh_selloff_3ch" style="rounded=1;whiteSpace=wrap;html=1;" vertex="1" parent="1">
          <mxGeometry x="550" y="110" width="130" height="40" as="geometry" />
        </mxCell>
        <mxCell id="j1KfgDtCw7kQpafaiTb_-6" value="OpenApi&lt;br&gt;ts_sku_selloff" style="rounded=1;whiteSpace=wrap;html=1;" vertex="1" parent="1">
          <mxGeometry x="550" y="200" width="130" height="40" as="geometry" />
        </mxCell>
        <mxCell id="j1KfgDtCw7kQpafaiTb_-7" value="" style="endArrow=none;dashed=1;html=1;" edge="1" parent="1">
          <mxGeometry width="50" height="50" relative="1" as="geometry">
            <mxPoint x="480" y="270" as="sourcePoint" />
            <mxPoint x="480" y="60" as="targetPoint" />
          </mxGeometry>
        </mxCell>
        <mxCell id="j1KfgDtCw7kQpafaiTb_-8" value="" style="endArrow=none;dashed=1;html=1;" edge="1" parent="1">
          <mxGeometry width="50" height="50" relative="1" as="geometry">
            <mxPoint x="480" y="60" as="sourcePoint" />
            <mxPoint x="710" y="60" as="targetPoint" />
          </mxGeometry>
        </mxCell>
        <mxCell id="j1KfgDtCw7kQpafaiTb_-9" value="" style="endArrow=none;dashed=1;html=1;" edge="1" parent="1">
          <mxGeometry width="50" height="50" relative="1" as="geometry">
            <mxPoint x="710" y="270" as="sourcePoint" />
            <mxPoint x="710" y="60" as="targetPoint" />
          </mxGeometry>
        </mxCell>
        <mxCell id="j1KfgDtCw7kQpafaiTb_-10" value="" style="endArrow=none;dashed=1;html=1;" edge="1" parent="1">
          <mxGeometry width="50" height="50" relative="1" as="geometry">
            <mxPoint x="480" y="270" as="sourcePoint" />
            <mxPoint x="710" y="270" as="targetPoint" />
          </mxGeometry>
        </mxCell>
        <mxCell id="j1KfgDtCw7kQpafaiTb_-11" value="&lt;font style=&quot;font-size: 18px&quot;&gt;辰森云&lt;/font&gt;" style="text;html=1;strokeColor=none;fillColor=none;align=center;verticalAlign=middle;whiteSpace=wrap;rounded=0;" vertex="1" parent="1">
          <mxGeometry x="490" y="60" width="60" height="20" as="geometry" />
        </mxCell>
        <mxCell id="j1KfgDtCw7kQpafaiTb_-12" value="" style="endArrow=classic;html=1;exitX=1;exitY=0.5;exitDx=0;exitDy=0;entryX=0;entryY=0.5;entryDx=0;entryDy=0;" edge="1" parent="1" source="j1KfgDtCw7kQpafaiTb_-1" target="j1KfgDtCw7kQpafaiTb_-2">
          <mxGeometry width="50" height="50" relative="1" as="geometry">
            <mxPoint x="390" y="260" as="sourcePoint" />
            <mxPoint x="440" y="210" as="targetPoint" />
          </mxGeometry>
        </mxCell>
        <mxCell id="j1KfgDtCw7kQpafaiTb_-23" value="&lt;b&gt;沽清/反沽清动作&lt;/b&gt;" style="text;html=1;align=center;verticalAlign=middle;resizable=0;points=[];labelBackgroundColor=#ffffff;" vertex="1" connectable="0" parent="j1KfgDtCw7kQpafaiTb_-12">
          <mxGeometry x="-0.31" y="2" relative="1" as="geometry">
            <mxPoint x="15.2" y="-8" as="offset" />
          </mxGeometry>
        </mxCell>
        <mxCell id="j1KfgDtCw7kQpafaiTb_-13" value="" style="endArrow=classic;html=1;" edge="1" parent="1">
          <mxGeometry width="50" height="50" relative="1" as="geometry">
            <mxPoint x="300" y="130" as="sourcePoint" />
            <mxPoint x="350" y="130" as="targetPoint" />
          </mxGeometry>
        </mxCell>
        <mxCell id="j1KfgDtCw7kQpafaiTb_-16" value="MQ" style="text;html=1;align=center;verticalAlign=middle;resizable=0;points=[];labelBackgroundColor=#ffffff;" vertex="1" connectable="0" parent="j1KfgDtCw7kQpafaiTb_-13">
          <mxGeometry x="0.1059" y="2" relative="1" as="geometry">
            <mxPoint x="-8" y="-8" as="offset" />
          </mxGeometry>
        </mxCell>
        <mxCell id="j1KfgDtCw7kQpafaiTb_-14" value="" style="endArrow=classic;html=1;exitX=1;exitY=0.5;exitDx=0;exitDy=0;entryX=0;entryY=0.5;entryDx=0;entryDy=0;" edge="1" parent="1" source="j1KfgDtCw7kQpafaiTb_-3" target="j1KfgDtCw7kQpafaiTb_-5">
          <mxGeometry width="50" height="50" relative="1" as="geometry">
            <mxPoint x="390" y="260" as="sourcePoint" />
            <mxPoint x="440" y="210" as="targetPoint" />
          </mxGeometry>
        </mxCell>
        <mxCell id="j1KfgDtCw7kQpafaiTb_-29" value="&lt;b&gt;口碑扫码&lt;/b&gt;" style="text;html=1;align=center;verticalAlign=middle;resizable=0;points=[];labelBackgroundColor=#ffffff;" vertex="1" connectable="0" parent="j1KfgDtCw7kQpafaiTb_-14">
          <mxGeometry x="-0.1814" y="1" relative="1" as="geometry">
            <mxPoint x="10.8" y="-9" as="offset" />
          </mxGeometry>
        </mxCell>
        <mxCell id="j1KfgDtCw7kQpafaiTb_-15" value="" style="endArrow=classic;html=1;entryX=0;entryY=0.5;entryDx=0;entryDy=0;" edge="1" parent="1" target="j1KfgDtCw7kQpafaiTb_-6">
          <mxGeometry width="50" height="50" relative="1" as="geometry">
            <mxPoint x="302" y="220" as="sourcePoint" />
            <mxPoint x="440" y="210" as="targetPoint" />
          </mxGeometry>
        </mxCell>
        <mxCell id="j1KfgDtCw7kQpafaiTb_-17" value="HTTP" style="text;html=1;align=center;verticalAlign=middle;resizable=0;points=[];labelBackgroundColor=#ffffff;" vertex="1" connectable="0" parent="j1KfgDtCw7kQpafaiTb_-15">
          <mxGeometry x="-0.1322" y="-2" relative="1" as="geometry">
            <mxPoint x="-47.66" y="-11.999999999999998" as="offset" />
          </mxGeometry>
        </mxCell>
        <mxCell id="j1KfgDtCw7kQpafaiTb_-18" value="&lt;b&gt;老微信扫码&lt;/b&gt;" style="text;html=1;strokeColor=none;fillColor=none;align=center;verticalAlign=middle;whiteSpace=wrap;rounded=0;" vertex="1" parent="1">
          <mxGeometry x="377" y="150" width="74" height="20" as="geometry" />
        </mxCell>
        <mxCell id="j1KfgDtCw7kQpafaiTb_-19" value="美味" style="rounded=1;whiteSpace=wrap;html=1;" vertex="1" parent="1">
          <mxGeometry x="770" y="80" width="90" height="40" as="geometry" />
        </mxCell>
        <mxCell id="j1KfgDtCw7kQpafaiTb_-20" value="口碑" style="rounded=1;whiteSpace=wrap;html=1;" vertex="1" parent="1">
          <mxGeometry x="770" y="140" width="90" height="40" as="geometry" />
        </mxCell>
        <mxCell id="j1KfgDtCw7kQpafaiTb_-21" value="" style="endArrow=classic;html=1;entryX=0;entryY=0.5;entryDx=0;entryDy=0;exitX=1;exitY=0.5;exitDx=0;exitDy=0;" edge="1" parent="1" source="j1KfgDtCw7kQpafaiTb_-5" target="j1KfgDtCw7kQpafaiTb_-19">
          <mxGeometry width="50" height="50" relative="1" as="geometry">
            <mxPoint x="440" y="260" as="sourcePoint" />
            <mxPoint x="490" y="210" as="targetPoint" />
          </mxGeometry>
        </mxCell>
        <mxCell id="j1KfgDtCw7kQpafaiTb_-26" value="HTTP" style="text;html=1;align=center;verticalAlign=middle;resizable=0;points=[];labelBackgroundColor=#ffffff;" vertex="1" connectable="0" parent="j1KfgDtCw7kQpafaiTb_-21">
          <mxGeometry x="0.4532" y="2" relative="1" as="geometry">
            <mxPoint as="offset" />
          </mxGeometry>
        </mxCell>
        <mxCell id="j1KfgDtCw7kQpafaiTb_-22" value="" style="endArrow=classic;html=1;entryX=0;entryY=0.5;entryDx=0;entryDy=0;exitX=1;exitY=0.5;exitDx=0;exitDy=0;" edge="1" parent="1" source="j1KfgDtCw7kQpafaiTb_-5" target="j1KfgDtCw7kQpafaiTb_-20">
          <mxGeometry width="50" height="50" relative="1" as="geometry">
            <mxPoint x="440" y="260" as="sourcePoint" />
            <mxPoint x="490" y="210" as="targetPoint" />
          </mxGeometry>
        </mxCell>
        <mxCell id="j1KfgDtCw7kQpafaiTb_-27" value="HTTP" style="text;html=1;align=center;verticalAlign=middle;resizable=0;points=[];labelBackgroundColor=#ffffff;" vertex="1" connectable="0" parent="j1KfgDtCw7kQpafaiTb_-22">
          <mxGeometry x="0.2888" y="-2" relative="1" as="geometry">
            <mxPoint x="6.21" y="-1.23" as="offset" />
          </mxGeometry>
        </mxCell>
        <mxCell id="j1KfgDtCw7kQpafaiTb_-24" value="按菜和菜的单位（规格）进行沽清" style="text;html=1;strokeColor=none;fillColor=none;align=center;verticalAlign=middle;whiteSpace=wrap;rounded=0;" vertex="1" parent="1">
          <mxGeometry x="120" y="150" width="100" height="60" as="geometry" />
        </mxCell>
        <mxCell id="j1KfgDtCw7kQpafaiTb_-28" value="&lt;b&gt;新扫码点餐&lt;/b&gt;" style="text;html=1;align=center;verticalAlign=middle;resizable=0;points=[];autosize=1;" vertex="1" parent="1">
          <mxGeometry x="390" y="200" width="80" height="20" as="geometry" />
        </mxCell>
        <mxCell id="j1KfgDtCw7kQpafaiTb_-30" value="&lt;b&gt;美味扫码&lt;/b&gt;" style="text;html=1;align=center;verticalAlign=middle;resizable=0;points=[];autosize=1;" vertex="1" parent="1">
          <mxGeometry x="480" y="130" width="60" height="20" as="geometry" />
        </mxCell>
      </root>
    </mxGraphModel>
  </diagram>
</mxfile>
